<svg width="551" height="551" viewBox="0 0 551 551" fill="none" xmlns="http://www.w3.org/2000/svg">
<path opacity="0.5" d="M317.927 275.342C317.927 298.93 298.877 318.05 275.379 318.05C251.882 318.05 232.832 298.93 232.832 275.342C232.832 251.754 251.882 232.635 275.379 232.635C298.877 232.635 317.927 251.754 317.927 275.342Z" stroke="#393F48" stroke-width="0.649586"/>
<path opacity="0.5" d="M359.501 275.019C359.501 321.657 321.693 359.464 275.055 359.464C228.417 359.464 190.609 321.657 190.609 275.019C190.609 228.381 228.417 190.573 275.055 190.573C321.693 190.573 359.501 228.381 359.501 275.019Z" stroke="#393F48" stroke-opacity="0.5" stroke-width="0.649586"/>
<path opacity="0.5" d="M403.023 275.185C403.023 345.859 345.73 403.152 275.055 403.152C204.38 403.152 147.087 345.859 147.087 275.185C147.087 204.51 204.38 147.217 275.055 147.217C345.73 147.217 403.023 204.51 403.023 275.185Z" stroke="#393F48" stroke-opacity="0.4" stroke-width="0.649586"/>
<path opacity="0.5" d="M451.946 274.825C451.946 372.463 372.794 451.613 275.157 451.613C177.519 451.613 98.3678 372.463 98.3678 274.825C98.3678 177.188 177.519 98.0376 275.157 98.0376C372.794 98.0376 451.946 177.188 451.946 274.825Z" stroke="#393F48" stroke-opacity="0.3" stroke-width="0.649586"/>
<path opacity="0.5" d="M496.975 274.778C496.975 397.407 397.565 496.816 274.936 496.816C152.307 496.816 52.8966 397.407 52.8966 274.778C52.8966 152.15 152.307 52.7403 274.936 52.7403C397.565 52.7403 496.975 152.15 496.975 274.778Z" stroke="#393F48" stroke-opacity="0.2" stroke-width="0.649586"/>
<path opacity="0.5" d="M549.974 275.155C549.974 426.932 426.934 549.971 275.157 549.971C123.379 549.971 0.33915 426.932 0.33915 275.155C0.33915 123.378 123.379 0.33915 275.157 0.33915C426.934 0.33915 549.974 123.378 549.974 275.155Z" stroke="#393F48" stroke-opacity="0.1" stroke-width="0.678299"/>
</svg>
